<?xml version="1.0" encoding="UTF-8"?>
<svg xmlns="http://www.w3.org/2000/svg" id="Layer_1" data-name="Layer 1" viewBox="0 0 24 24">
  <path d="m4.5,6c-1.378,0-2.5,1.122-2.5,2.5s1.122,2.5,2.5,2.5,2.5-1.122,2.5-2.5-1.122-2.5-2.5-2.5Zm0,4c-.827,0-1.5-.673-1.5-1.5s.673-1.5,1.5-1.5,1.5.673,1.5,1.5-.673,1.5-1.5,1.5Zm1.5,9.5c0,.276-.224.5-.5.5h-2c-.171,0-.335-.027-.5-.051v3.551c0,.276-.224.5-.5.5s-.5-.224-.5-.5v-3.851c-1.178-.564-2-1.758-2-3.149v-1c0-1.93,1.57-3.5,3.5-3.5h1c.276,0,.5.224.5.5s-.224.5-.5.5h-1c-1.378,0-2.5,1.122-2.5,2.5v1c0,1.378,1.122,2.5,2.5,2.5h2c.276,0,.5.224.5.5ZM11.5,3c-1.378,0-2.5,1.122-2.5,2.5s1.122,2.5,2.5,2.5,2.5-1.122,2.5-2.5-1.122-2.5-2.5-2.5Zm0,4c-.827,0-1.5-.673-1.5-1.5s.673-1.5,1.5-1.5,1.5.673,1.5,1.5-.673,1.5-1.5,1.5Zm1.5,11.5c0,.276-.224.5-.5.5h-2c-.171,0-.335-.027-.5-.051v4.551c0,.276-.224.5-.5.5s-.5-.224-.5-.5v-4.851c-1.178-.564-2-1.758-2-3.149v-3c0-1.93,1.57-3.5,3.5-3.5h1c.276,0,.5.224.5.5s-.224.5-.5.5h-1c-1.378,0-2.5,1.122-2.5,2.5v3c0,1.378,1.122,2.5,2.5,2.5h2c.276,0,.5.224.5.5Zm5.5-13.5c1.378,0,2.5-1.122,2.5-2.5s-1.122-2.5-2.5-2.5-2.5,1.122-2.5,2.5,1.122,2.5,2.5,2.5Zm0-4c.827,0,1.5.673,1.5,1.5s-.673,1.5-1.5,1.5-1.5-.673-1.5-1.5.673-1.5,1.5-1.5Zm1,5h-2c-1.93,0-3.5,1.57-3.5,3.5v5c0,1.391.822,2.585,2,3.149v5.851c0,.276.224.5.5.5s.5-.224.5-.5v-5.551c.165.024.329.051.5.051h2c.171,0,.335-.027.5-.051v5.551c0,.276.224.5.5.5s.5-.224.5-.5v-5.851c1.178-.564,2-1.758,2-3.149v-5c0-1.93-1.57-3.5-3.5-3.5Zm2.5,8.5c0,1.378-1.122,2.5-2.5,2.5h-2c-1.378,0-2.5-1.122-2.5-2.5v-5c0-1.378,1.122-2.5,2.5-2.5h2c1.378,0,2.5,1.122,2.5,2.5v5Z"/>
</svg>
