<?xml version="1.0" encoding="UTF-8"?>
<svg xmlns="http://www.w3.org/2000/svg" id="Layer_1" data-name="Layer 1" viewBox="0 0 24 24">
  <path d="m11.272,13.575c-.403,2.654-1.252,4.639-2.001,6.39l-.309.729c-.081.191-.266.307-.461.307-.064,0-.13-.013-.193-.039-.255-.106-.375-.399-.269-.654l.312-.735c.511-1.193,1.07-2.499,1.49-4.05-.625.646-1.067.898-1.097.915-.241.135-.545.05-.681-.192-.134-.24-.049-.544.19-.679.017-.01,1.002-.595,2.102-2.333.126-.201.375-.284.597-.201s.355.31.319.544Zm6.728-3.583c0,4.623-1.291,8.679-2.373,11.269-.696,1.664-2.322,2.739-4.143,2.739H2.548c-.836,0-1.621-.41-2.098-1.097-.479-.688-.586-1.532-.295-2.314.26-.696.599-1.486.964-2.337,1.078-2.508,2.419-5.628,2.458-8.267.002-.146.068-.284.18-.377.353-.293.975-.611,1.507-.616.537.014,1.017.173,1.41.5.789.655,1.937.655,2.726,0,.806-.667,1.974-.668,2.78,0,.789.655,1.937.655,2.726,0,.388-.322.881-.5,1.39-.5.547,0,1.173.313,1.523.604.109.09.175.255.181.396Zm-1.001.245c-.232-.142-.519-.245-.703-.245-.276,0-.542.096-.751.269-1.152.956-2.851.956-4.003,0-.436-.362-1.067-.361-1.502,0-1.152.956-2.851.956-4.003,0-.212-.176-.483-.246-.763-.269-.179.001-.468.112-.704.26-.116,2.774-1.452,5.882-2.531,8.394-.358.834-.691,1.608-.946,2.292-.175.471-.11.979.179,1.394.294.425.76.668,1.276.668h8.937c1.416,0,2.68-.834,3.22-2.126,1.028-2.458,2.25-6.281,2.294-10.637Zm7.001-5.737v13c0,2.481-2.019,4.5-4.5,4.5h-1c-.276,0-.5-.224-.5-.5s.224-.5.5-.5h1c1.93,0,3.5-1.57,3.5-3.5V7c-.475,0-.926-.171-1.304-.496-.38-.325-.864-.504-1.362-.504s-.983.179-1.362.504c-.757.648-1.853.648-2.608,0-.758-.651-1.964-.651-2.725,0-.757.648-1.853.648-2.608,0-.758-.651-1.965-.651-2.725,0-.378.324-.829.496-1.304.496h-.5c-.276,0-.5-.224-.5-.5v-2c0-2.481,2.019-4.5,4.5-4.5h9c2.481,0,4.5,2.019,4.5,4.5Zm-1,0c0-1.93-1.57-3.5-3.5-3.5h-9c-1.93,0-3.5,1.57-3.5,3.5v1.5c.233,0,.458-.088.654-.255,1.121-.961,2.905-.961,4.026,0,.391.334.92.333,1.307,0,1.122-.961,2.905-.96,4.026,0,.388.333.917.334,1.308,0,1.121-.961,2.905-.961,4.026,0,.195.167.421.255.654.255v-1.5Z"/>
</svg>
